#!OML:ASF E:/inclinewalkrobotboard/Project1/Captureday1/Session1/subject1.ASF
:FULLY-SPECIFIED
:DEGREES
188
root 0 0 0 -1.1373345633068372 -2.8528870714402097 -0.8498091404157853
lowerback 10.957623284753787 0.5642312905412498 0.4619000083546735
upperback -1.1441211595414864 0.8815757515981579 0.8992892938445269
thorax -7.332961135478905 0.406178442376109 0.43707783673068445
lowerneck -13.33213848985478 -1.3792721287601921 0.2577924416034531
upperneck 19.04296400996446 -1.3638162482518883 -2.4096867441502052
head 8.198930580666842 -0.7911871264499015 -1.0262245214703372
rclavicle -4.56283324212361E-16 -2.575989579563334E-16
rhumerus -11.231360205980799 -6.412702260597904 -66.93732366390391
rradius 43.467727009624205
rwrist 12.27406615642285
rhand -23.785025462081347 -6.425113776988809
rfingers 7.125020000000132
rthumb 2.916151426203438 -36.574647167743336
lclavicle -9.301218782502449E-16 -8.263734248768537E-16
lhumerus -10.624570699823217 -4.5379037075195745 67.43849080286654
lradius 45.08404249399556
lwrist -6.048404869503672
lhand -33.92262700377349 -13.985060862850911
lfingers 7.125020000000122
lthumb -7.190478974369967 15.105450473351498
rfemur -32.184181713560086 2.353894534692293 18.200608864357612
rtibia 44.92570484925567
rfoot -0.5451290545636756 -9.127697640554247
rtoes 2.53795047848896
lfemur 19.237843101090206 -2.9911135418633363 -31.160730456776818
ltibia 25.643547456687102
lfoot -10.260896381531042 -8.40311268319298
ltoes -6.909271174618763
189
root 0 0 0 -1.1420087795240288 -2.8515521578074554 -0.8550152986074291
lowerback 10.955763633983404 0.5636068738153869 0.4633192910043813
upperback -1.1379355945450291 0.8812410738804418 0.9021071320308063
thorax -7.325088363843383 0.4059054628365714 0.4394129691436576
lowerneck -13.34541238684694 -1.3850373784910253 0.24984469583006969
upperneck 19.043291535503382 -1.3727461863224637 -2.3985832891214898
head 8.201369254595852 -0.7949608362145768 -1.0220973002283062
rclavicle -4.570149953811681E-16 -2.5702554316478726E-16
rhumerus -11.261520840414232 -6.43353147766634 -66.95585416793536
rradius 43.43890499476838
rwrist 12.25996619165435
rhand -23.774803492945043 -6.375651017050872
rfingers 7.125020000000132
rthumb 2.926599855262584 -36.527158701709254
lclavicle -9.28239819241324E-16 -8.261373720544672E-16
lhumerus -10.62765619732901 -4.537595746248549 67.44112439727647
lradius 45.08136694309814
lwrist -6.046064924767275
lhand -33.921850519498655 -13.981692301154139
lfingers 7.125020000000122
lthumb -7.189500321805731 15.112616255077821
rfemur -30.386104319438132 3.3321057117247577 19.30416721810489
rtibia 39.39023701711308
rfoot -2.729059999264207 -9.383024195751902
rtoes 1.7447118589269384
lfemur 19.33890325643194 -2.7013062196099904 -30.922261632293704
ltibia 28.030741857764554
lfoot -9.200877198032106 -9.370365685670528
ltoes -7.316542219991801
190
root 0 0 0 -1.1539738215616457 -2.8483280724955566 -0.868121841303409
lowerback 10.951131217500887 0.5622024205897277 0.46748473579271566
upperback -1.1224195984547511 0.8804650715200866 0.9090913031583531
thorax -7.305037088411195 0.40526277391912474 0.4451671176137637
lowerneck -13.379572243356213 -1.3996927779782742 0.22965675349840625
upperneck 19.044503557298363 -1.3950041130996778 -2.3700322017344124
head 8.207599124416083 -0.8044926878213324 -1.0115156474891196
rclavicle -4.579006478759706E-16 -2.508902961772883E-16
rhumerus -11.406478575246869 -6.530363991370673 -67.04558169900842
rradius 43.30065740869519
rwrist 12.19111536276759
rhand -23.725935115357004 -6.137189118543228
rfingers 7.1250200000001325
rthumb 2.976265625154138 -36.293631641121166
lclavicle -9.329354634148804E-16 -8.234093987514651E-16
lhumerus -10.858236529232036 -4.482114452310767 67.60657701353897
lradius 44.897416188880065
lwrist -5.919510950180874
lhand -33.842590576632446 -13.562408730085805
lfingers 7.125020000000123
lthumb -7.113586719058441 15.533535847455024
rfemur -23.950410151481883 5.30126462060384 22.583137757679296
rtibia 30.013520002448722
rfoot -7.182096950574214 -9.134190980965073
rtoes 0.9500040589705507
lfemur 18.40042328342654 -2.253460896530635 -30.07885554949548
ltibia 31.90281465723802
lfoot -7.2144264697904505 -10.694974517277526
ltoes -7.708326164256026
191
root 0 0 0 -1.1647898463875488 -2.8455124878115607 -0.8798533938693677
lowerback 10.947035230135032 0.5610506122616379 0.4715881646878499
upperback -1.1086058263422995 0.8798659296326943 0.9152473731945392
thorax -7.2869972871790765 0.4047004479964866 0.45025374597756707
lowerneck -13.410605279966248 -1.4128582219844361 0.21154806323874192
upperneck 19.04587221510051 -1.4148244566205097 -2.344109215861611
head 8.213174714915597 -0.8130473813485344 -1.0018816648333504
rclavicle -4.590620500119609E-16 -2.42938923427047E-16
rhumerus -11.563764232582958 -6.634823834546287 -67.14340312804967
rradius 43.14992797399853
rwrist 12.116088831219946
rhand -23.672828242429134 -5.87821241661314
rfingers 7.1250200000001325
rthumb 3.030185287840615 -36.037934249666314
lclavicle -9.397064608241026E-16 -8.206198678801354E-16
lhumerus -11.173083658274148 -4.405798562708625 67.83293601932549
lradius 44.64623357558041
lwrist -5.7470710272326695
lhand -33.733932866729724 -12.98462814612609
lfingers 7.1250200000001245
lthumb -7.009649945133864 16.109204839709093
rfemur -16.37845968349872 6.966425924111588 26.150458066488124
rtibia 23.396194184926216
rfoot -11.062327849118539 -8.372298828661771
rtoes 0.8459500357492094
lfemur 16.427401410809942 -1.869305991678532 -28.83405901110068
ltibia 35.43776562384267
lfoot -5.129275241151098 -11.65981571702305
ltoes -7.809935861759242
192
root 0 0 0 -1.1760917849152315 -2.8427099659209114 -0.8920387469572693
lowerback 10.942810759370566 0.5599236718241544 0.47626725527228375
upperback -1.0943358189108041 0.879260374580427 0.9215807857902322
thorax -7.268220948605921 0.40412727693914247 0.4554157263000068
lowerneck -13.443121724400687 -1.4266457206949361 0.1928524857489679
upperneck 19.047284964872805 -1.4352982646932002 -2.3169158612461174
head 8.21896261084834 -0.8219494607149727 -0.9917981190377865
rclavicle -4.602771394988099E-16 -2.335817999020768E-16
rhumerus -11.73974231679286 -6.750695996545318 -67.25309194100772
rradius 42.9812776020599
rwrist 12.031978277818581
rhand -23.61342073308047 -5.587341590392954
rfingers 7.125020000000133
rthumb 3.0907641631961793 -35.7505372738445
lclavicle -9.517117662989623E-16 -8.173572421037452E-16
lhumerus -11.569228391632013 -4.309640146897862 68.11701232752074
lradius 44.32998484954024
lwrist -5.529810409171499
lhand -33.597154056601596 -12.256027768481456
lfingers 7.125020000000126
lthumb -6.879021624897232 16.831174231179382
rfemur -7.004701952901323 8.46305590587221 30.27100946924419
rtibia 19.12831164416037
rfoot -14.55807358717649 -7.019288368126247
rtoes 1.5162798036378387
lfemur 12.041524232871675 -1.2784114693277209 -26.356685229993275
ltibia 41.01010629828742
lfoot -1.6290686397113188 -12.875922855109403
ltoes -7.667615971820699
193
root 0 0 0 -1.1839271255723975 -2.841148576126803 -0.9001262843721682
lowerback 10.940070585184614 0.55932998719003 0.4800735639077442
upperback -1.0850721401637353 0.8790550069604661 0.9257274760709939
thorax -7.255669477485112 0.40378404965415005 0.45868530577655187
lowerneck -13.465270586791899 -1.4359170902873823 0.18039658260707064
upperneck 19.048556806243393 -1.4484857294601252 -2.29831805980249
head 8.222876025821604 -0.827831424569061 -0.9849603630082149
rclavicle -4.612685573562605E-16 -2.2808393251561484E-16
rhumerus -11.843385552065161 -6.817076417015524 -67.31850646838498
rradius 42.88181964989144
rwrist 11.982595023095923
rhand -23.578592983924644 -5.414879221754018
rfingers 7.125020000000134
rthumb 3.126839750407373 -35.579464684990526
lclavicle -9.641281038226844E-16 -8.151192523713347E-16
lhumerus -11.91471798668616 -4.2252639868819095 68.3646296183549
lradius 44.05367671975232
lwrist -5.340126509248673
lhand -33.47753131343449 -11.61671975662127
lfingers 7.125020000000128
lthumb -6.764934933192292 17.458204475131843
rfemur 1.6369235521191108 9.253054686897691 33.7609533345055
rtibia 19.363023040091747
rfoot -16.32406082519224 -5.312902599794587
rtoes 3.033370727300185
lfemur 4.114587188289141 -0.3845168749025819 -22.274539957011516
ltibia 48.816015420773304
lfoot 3.0633218048605464 -13.956077665193039
ltoes -7.131710049805126
194
root 0 0 0 -1.1846207200807342 -2.841986056101304 -0.900132604736567
lowerback 10.940246325872586 0.5597023700311348 0.4813324654235319
upperback -1.085793985739084 0.8794418330966838 0.9256115736666403
thorax -7.255779131362956 0.40389559694704524 0.45820195099420613
lowerneck -13.466166014435165 -1.4359687816978768 0.18038088604600128
upperneck 19.049570824520504 -1.4471730096000215 -2.297483710814665
head 8.22309911352632 -0.8276386335406805 -0.9848120274760463
rclavicle -4.61041453388741E-16 -2.3174838255266807E-16
rhumerus -11.778362815591706 -6.770462885154643 -67.27996036172718
rradius 42.9431934868711
rwrist 12.01354482009667
rhand -23.600574255790008 -5.520180907655976
rfingers 7.125020000000133
rthumb 3.1052895965781806 -35.67946116473633
lclavicle -9.729956813763045E-16 -8.135217256089965E-16
lhumerus -12.07436548376707 -4.185217801699409 68.4782001642274
lradius 43.926951352269015
lwrist -5.253981010417013
lhand -33.42226851972979 -11.320812553718886
lfingers 7.125020000000128
lthumb -6.71229384624324 17.742226041311596
rfemur 7.6281095130362 9.35486406560356 35.976605777928924
rtibia 22.61613703201822
rfoot -16.516150402614294 -3.7746277244563373
rtoes 4.683385998859318
lfemur -6.263059875378715 0.6230943674432879 -17.501702098124884
ltibia 56.04953155336169
lfoot 6.63695654217682 -13.740800112281272
ltoes -6.3408874793277725
195
root 0 0 0 -1.17817684699621 -2.8466477560637813 -0.8925289959613179
lowerback 10.94426789973068 0.5616112948446648 0.48056197906309983
upperback -1.097022947013818 0.8802692100657521 0.9200716889204759
thorax -7.270159273210813 0.4043304121940649 0.4530500365800786
lowerneck -13.444559174375406 -1.428169788223932 0.19413867337267166
upperneck 19.052785549375894 -1.4302687315386629 -2.3134353383779906
head 8.219968412686999 -0.8209590415930903 -0.9924111756511673
rclavicle -3.7059949109876106E-16 -2.3236317699072975E-16
rhumerus -11.672216388007037 -6.710540276409296 -67.22753678867053
rradius 42.99166906013606
rwrist 12.060769514451046
rhand -23.618668728540356 -5.6631320470704765
rfingers 7.125020000000133
rthumb 3.0806776077232785 -35.76938755575771
lclavicle -9.777696608060362E-16 -8.455578879675767E-16
lhumerus -12.09775999062958 -4.182522045305772 68.4853112654599
lradius 43.932633662719304
lwrist -5.222197376149018
lhand -33.42444402463684 -11.32820572578584
lfingers 7.125020000000129
lthumb -6.699286263748483 17.627164202433775
rfemur 12.360827198185277 8.954880859355496 37.51764776213
rtibia 28.4258808988327
rfoot -15.639933409600095 -2.191433159114654
rtoes 6.519738241869308
lfemur -20.48955321798471 1.2407794753350259 -11.74945967352975
ltibia 59.670593169702016
lfoot 8.254713532165619 -10.870392242480653
ltoes -4.875450742004621
